HIERARCHY
ROOT Hips
{
  OFFSET 0 0 0
  CHANNELS 6 Xposition Yposition Zposition Zrotation Yrotation Xrotation
  JOINT LeftThigh
  {
    OFFSET 8.409438 0 -5.917753
    CHANNELS 3 Zrotation Yrotation Xrotation
    JOINT LeftLeg
    {
      OFFSET 0 0 -42.358652
      CHANNELS 3 Zrotation Yrotation Xrotation
      JOINT LeftFoot
      {
        OFFSET 0 0 -39.357303
        CHANNELS 3 Zrotation Yrotation Xrotation
      }
    }
  }
  JOINT RightThigh
  {
    OFFSET -8.409438 0 -5.917753
    CHANNELS 3 Zrotation Yrotation Xrotation
    JOINT RightLeg
    {
      OFFSET 0 0 -42.358652
      CHANNELS 3 Zrotation Yrotation Xrotation
      JOINT RightFoot
      {
        OFFSET 0 0 -39.357303
        CHANNELS 3 Zrotation Yrotation Xrotation
      }
    }
  }
  JOINT SpineLow
  {
    OFFSET 0 0 4.719101
    CHANNELS 3 Zrotation Yrotation Xrotation
    JOINT SpineMid
    {
      OFFSET 0 0 12.899191
      CHANNELS 3 Zrotation Yrotation Xrotation
      JOINT Chest
      {
        OFFSET 0 0 12.899191
        CHANNELS 3 Zrotation Yrotation Xrotation
        JOINT LeftShoulder
        {
          OFFSET 7.550562 1.41573 9.438202
          CHANNELS 3 Zrotation Yrotation Xrotation
          JOINT LeftArm
          {
            OFFSET 9.155056 0 4.247191
            CHANNELS 3 Zrotation Yrotation Xrotation
            JOINT LeftForearm
            {
              OFFSET 0 0 25.771955
              CHANNELS 3 Zrotation Yrotation Xrotation
              JOINT LeftHand
              {
                OFFSET 0 0 25.197169
                CHANNELS 3 Zrotation Yrotation Xrotation
              }
            }
          }
        }
        JOINT RightShoulder
        {
          OFFSET -7.550562 1.41573 9.438202
          CHANNELS 3 Zrotation Yrotation Xrotation
          JOINT RightArm
          {
            OFFSET -9.155056 0 4.247191
            CHANNELS 3 Zrotation Yrotation Xrotation
            JOINT RightForearm
            {
              OFFSET 0 0 -25.771955
              CHANNELS 3 Zrotation Yrotation Xrotation
              JOINT RightHand
              {
                OFFSET 0 0 -25.197169
                CHANNELS 3 Zrotation Yrotation Xrotation
              }
            }
          }
        }
        JOINT Neck
        {
          OFFSET 0 0 15.101124
          CHANNELS 3 Zrotation Yrotation Xrotation
          JOINT Head
          {
            OFFSET 0 0 11.325843
            CHANNELS 3 Zrotation Yrotation Xrotation
            End Site
            {
              OFFSET 0 0 14.157303
            }
          }
        }
      }
    }
  }
}
MOTION
Frames: 11
Frame Time: 0.0
0.0  101.685394  0.0  -0.540624  -27.054997  -103.426244  21.767331  -29.008013  -20.721518  -1.831097  25.054558  54.537267  -1.50906  4.653841  -0.121948  -12.905707  4.040499  12.958641  -11.676275  26.552269  18.196193  15.26034  9.541525  -5.624338  -3.14269  -0.061033  1.924425  -8.588833  0.083273  5.257942  -8.588833  0.083273  5.257942  6.584314  24.186737  15.829807  -162.25362  70.602  -123.349384  -45.457062  -20.745039  90.339039  62.412155  -10.621335  -9.647934  26.284563  -3.747275  34.979091  87.149006  33.351687  31.859535  -16.624917  6.662977  -106.924519  83.342901  14.433835  61.629132  11.574894  -1.454712  -2.502  8.674924  -1.138934  -1.849625  
0.0  101.685394  0.0  -0.464403  -26.31108  -103.419097  20.794882  -28.99916  -20.435591  -1.18547  24.688513  54.63034  -1.681645  4.58471  -0.026882  -12.716578  4.616159  13.808961  -12.652058  25.736829  17.166227  15.34112  9.580466  -5.612426  -3.360905  -0.097268  1.754603  -9.188192  -0.021716  4.798889  -9.188192  -0.021716  4.798889  7.975392  24.604911  17.038376  -164.47539  70.569728  -125.21831  -45.575614  -21.268226  90.651402  62.585534  -10.961045  -9.534961  26.055208  -3.991959  35.484629  88.372624  33.031692  32.765733  -17.438189  7.014735  -107.152868  83.651955  13.656062  61.624983  11.9947  -1.288129  -2.040917  8.991465  -1.006632  -1.50602  
0.0  101.685394  0.0  -0.463673  -25.508728  -103.178242  19.797527  -29.004596  -20.461581  -0.811335  24.711208  54.368844  -1.714411  4.56786  0.130139  -13.136938  4.550185  14.160327  -13.144584  25.690506  16.246432  15.332176  9.454351  -5.649876  -3.48818  -0.126099  1.647713  -9.538099  -0.106451  4.51126  -9.538099  -0.106451  4.51126  8.525644  24.899065  17.579152  -166.383885  70.645129  -126.794772  -45.661742  -21.950455  90.996782  62.770642  -11.400341  -9.316727  26.527776  -4.156753  36.015099  88.299599  33.471255  32.77777  -18.532763  7.6457  -107.336986  83.669677  12.617332  61.701369  12.067361  -1.218732  -2.018405  9.046274  -0.954364  -1.490363  
0.0  101.685394  0.0  -0.458762  -24.651624  -102.78635  19.02615  -28.972852  -20.664742  -0.560156  24.640055  54.115002  -1.681178  4.553235  0.341749  -13.087696  4.345806  14.332273  -14.149133  25.687988  15.272059  15.188289  9.257358  -5.612515  -3.594593  -0.154332  1.578055  -9.830744  -0.186466  4.325425  -9.830745  -0.186466  4.325425  8.740043  25.211115  17.687342  -168.135075  70.823654  -128.13834  -45.811794  -22.7546  91.319165  62.938794  -11.805666  -9.033513  26.65033  -4.242183  36.01016  88.713411  33.757352  33.070437  -19.738289  8.480481  -107.4996  83.427344  11.507423  61.873005  11.993859  -1.178582  -2.320454  8.990759  -0.929924  -1.717927  
0.0  101.685394  0.0  -0.483829  -23.911353  -102.315635  18.607279  -28.913338  -21.027527  -0.573908  24.695963  53.755337  -1.832075  4.535706  0.424503  -12.50317  3.913915  14.324912  -15.389559  25.641229  14.542963  14.92333  9.223465  -5.573157  -3.657501  -0.182084  1.547593  -10.004408  -0.262568  4.246592  -10.004409  -0.262568  4.246592  8.822534  25.474966  17.48827  -169.593604  71.026741  -129.184386  -45.931126  -23.427463  91.731873  63.081445  -12.057643  -8.758393  26.939415  -4.286815  35.796426  88.936575  34.190547  33.234192  -20.929841  9.287143  -107.794672  83.07749  10.28263  62.051232  11.918332  -1.147828  -2.802279  8.933414  -0.915965  -2.080185  
0.0  101.685394  0.0  -0.474404  -23.095039  -101.836447  18.378919  -28.771213  -21.456724  -0.949317  24.809664  53.271107  -1.855738  4.555932  0.536432  -13.092642  3.959507  13.45456  -16.029842  25.283213  14.510851  15.166685  9.758614  -5.59684  -3.699457  -0.199746  1.518499  -10.120125  -0.312441  4.170044  -10.120125  -0.312441  4.170044  8.466773  25.575208  17.213061  -170.759468  71.09097  -130.00983  -46.154708  -24.130604  92.138641  63.189419  -12.108041  -8.537925  27.031072  -4.345827  35.493739  89.233005  34.661006  33.419687  -21.834644  9.943134  -108.3573  82.776209  8.974284  62.330455  11.6702  -1.146541  -3.357085  8.746377  -0.924455  -2.49691  
0.0  101.685394  0.0  -0.446796  -22.171783  -101.39901  18.181417  -28.536709  -21.926296  -1.550983  25.018675  52.763028  -1.927998  4.543847  0.58427  -12.424746  3.457363  13.127388  -17.104906  25.230777  14.365294  14.475033  9.914009  -5.569735  -3.729219  -0.201255  1.493568  -10.201482  -0.318512  4.102382  -10.201482  -0.318512  4.102382  8.25097  25.701062  17.064654  -171.611561  71.261672  -130.461303  -46.34161  -24.664595  92.688738  63.232132  -11.945572  -8.390134  27.081094  -4.39643  35.293652  89.399377  35.372375  33.445211  -22.32412  10.324628  -109.047265  82.690614  7.672581  62.628141  11.450003  -1.14912  -3.8504  8.580383  -0.934423  -2.867363  
0.0  101.685394  0.0  -0.372044  -21.113349  -101.001679  17.905522  -28.198801  -22.42641  -2.525315  25.386242  52.043591  -1.933919  4.503577  0.657554  -11.984844  3.074026  12.701871  -17.99711  25.225638  14.397067  13.732569  9.983794  -5.520689  -3.759373  -0.188252  1.47144  -10.283011  -0.284647  4.040108  -10.283011  -0.284647  4.040108  7.923023  25.691869  16.996155  -172.231158  71.348481  -130.606273  -46.5666  -25.136672  93.277623  63.233644  -11.585231  -8.348146  26.089972  -4.618566  34.720647  90.725221  35.806226  34.271877  -22.654693  10.205511  -109.774301  83.04539  6.163467  62.653922  11.095159  -1.167913  -4.373792  8.313233  -0.955783  -3.260298  
0.0  101.685394  0.0  -0.284996  -20.004214  -100.604025  17.626649  -27.79473  -22.964817  -3.399213  25.676507  51.5287  -2.033714  4.473162  0.678696  -11.723127  2.761979  12.249724  -18.747914  25.264305  14.466694  13.214897  10.082392  -5.431151  -3.764047  -0.162988  1.459431  -10.29421  -0.217391  4.003448  -10.294209  -0.217391  4.003448  7.470526  25.707921  16.882303  -172.423334  71.493136  -130.375721  -46.698365  -25.365438  94.007728  63.215037  -10.994422  -8.417979  25.896943  -4.663396  34.697212  90.940527  37.127057  34.230646  -23.170313  9.904155  -110.43719  83.584387  4.245079  62.311661  10.771506  -1.202339  -4.853186  8.069393  -0.987742  -3.619895  
0.0  101.685394  0.0  -0.09626  -18.646793  -100.249732  16.881288  -27.212784  -23.566877  -4.304184  26.004194  51.042435  -2.231767  4.419165  0.643678  -11.892067  2.715124  11.77181  -19.395163  25.242651  14.55604  12.746227  10.165671  -5.331854  -3.818874  -0.125397  1.440452  -10.441729  -0.114646  3.945827  -10.44173  -0.114646  3.945828  7.182392  25.7301  16.899459  -172.117406  71.568934  -129.65601  -46.732389  -25.405225  94.776249  63.169679  -10.265558  -8.627151  24.842941  -4.936145  34.155261  92.464921  37.954056  35.179563  -24.001209  9.863055  -111.041555  83.959925  1.827372  61.712497  10.359536  -1.24241  -5.371682  7.759144  -1.023317  -4.008907  
0.0  101.685394  0.0  -0.017584  -17.406152  -99.90534  16.276651  -26.78796  -24.087889  -5.161189  26.327705  50.626773  -2.326061  4.408261  0.617801  -12.17  2.630803  11.34783  -19.805886  25.261312  14.685589  12.457657  10.260163  -5.214117  -3.8117  -0.09377  1.444696  -10.420226  -0.02824  3.952418  -10.420227  -0.02824  3.952418  6.731977  25.767268  16.869253  -171.61867  71.825751  -128.612043  -46.602091  -25.302589  95.577473  63.21877  -9.32034  -9.04878  24.580366  -5.185447  34.073984  92.7817  39.580051  35.376744  -25.336733  10.123758  -111.636299  84.052444  -0.925886  60.797179  9.937708  -1.3303  -5.832517  7.441059  -1.093038  -4.353922  
